<?xml version="1.0" encoding="utf-8"?>
<!-- Generator: Adobe Illustrator 25.4.1, SVG Export Plug-In . SVG Version: 6.00 Build 0)  -->
<svg version="1.1" id="Layer_1" xmlns="http://www.w3.org/2000/svg" xmlns:xlink="http://www.w3.org/1999/xlink" x="0px" y="0px"
	 viewBox="0 0 246 63.8" style="enable-background:new 0 0 246 63.8;" xml:space="preserve">
<style type="text/css">
	.st0{fill:#FFFFFF;}
</style>
<g>
	<g transform="translate(96.551525, 205.492676)">
		<g>
			<path class="st0" d="M-81.6-180h6.7v5.6c0.7-1.9,1.7-3.4,3.2-4.6c1.5-1.2,3.2-1.7,5.1-1.7c1.3,0,2.2,0.1,2.7,0.4l-0.9,6.7
				c-0.4-0.2-1.2-0.4-2.4-0.4c-1.9,0-3.7,0.6-5.3,1.9c-1.6,1.2-2.4,3.2-2.4,5.9v14.6h-6.7V-180z"/>
		</g>
	</g>
</g>
<g>
	<g transform="translate(117.639608, 205.492676)">
		<g>
			<path class="st0" d="M-61-151.1c-3.4,0-6.2-0.7-8.4-2c-2.3-1.3-3.9-3.1-5-5.4c-1.1-2.2-1.6-4.7-1.6-7.4c0-3,0.6-5.6,1.9-7.9
				c1.3-2.3,3-4,5.2-5.2c2.2-1.2,4.7-1.8,7.5-1.8c4.4,0,7.6,1.2,9.7,3.6c2.1,2.4,3.2,5.8,3.2,10.1c0,1.1-0.1,2.3-0.2,3.5h-20.4
				c0.4,2.5,1.3,4.3,2.7,5.4c1.3,1.1,3.2,1.7,5.6,1.7c2,0,3.6-0.2,4.9-0.5c1.3-0.3,2.4-0.8,3.5-1.4l2,4.8c-1,0.7-2.4,1.2-4.2,1.8
				C-56.4-151.4-58.5-151.1-61-151.1z M-55-168.2c0-2.6-0.5-4.4-1.7-5.4c-1.2-1.1-2.8-1.6-4.9-1.6c-4.3,0-6.8,2.3-7.5,7H-55z"/>
		</g>
	</g>
</g>
<g>
	<g transform="translate(146.727592, 205.492676)">
		<g>
			<path class="st0" d="M-69.2-180h7.6l6.1,12.8l2,5.1l2-5.1l6-12.8h7.4L-53-151.7h-1.3L-69.2-180z"/>
		</g>
	</g>
</g>
<g>
	<g transform="translate(174.335832, 205.492676)">
		<g>
			<path class="st0" d="M-55-180h6.9v28.3H-55V-180z M-51.6-185.3c-1.3,0-2.4-0.4-3.2-1.3c-0.9-0.9-1.3-1.9-1.3-3.2
				c0-1.2,0.4-2.1,1.3-3c0.9-0.8,1.9-1.2,3.2-1.2c1.2,0,2.3,0.4,3.1,1.2c0.9,0.8,1.3,1.8,1.3,3c0,1.3-0.4,2.3-1.3,3.2
				C-49.3-185.8-50.4-185.3-51.6-185.3z"/>
		</g>
	</g>
</g>
<g>
	<g transform="translate(191.308369, 205.492676)">
		<g>
			<path class="st0" d="M-54.4-180h7.6l6.1,12.8l2,5.1l2-5.1l6-12.8h7.4l-14.9,28.3h-1.3L-54.4-180z"/>
		</g>
	</g>
</g>
<g>
	<g transform="translate(218.916609, 205.492676)">
		<g>
			<path class="st0" d="M-28.1-151.1c-2.5,0-4.9-0.6-7.1-1.8c-2.2-1.2-3.9-2.9-5.2-5.2c-1.3-2.2-1.9-4.9-1.9-7.9
				c0-3,0.6-5.5,1.7-7.8c1.1-2.2,2.8-3.9,4.9-5.2c2.1-1.2,4.6-1.9,7.4-1.9c1.7,0,3.2,0.3,4.6,0.9c1.4,0.6,2.7,1.3,3.6,2.1
				c1,0.8,1.6,1.7,2,2.5l0.1-4.8h6.4v28.3H-18l-0.1-5c-0.7,1.5-2,2.8-3.8,3.9C-23.8-151.7-25.8-151.1-28.1-151.1z M-27-156.7
				c2.3,0,4.3-0.8,5.9-2.4c1.6-1.6,2.4-3.8,2.4-6.4v-0.4c0-1.8-0.4-3.3-1.1-4.7c-0.7-1.4-1.7-2.5-3-3.3c-1.3-0.8-2.7-1.2-4.2-1.2
				c-2.6,0-4.7,0.9-6.1,2.6c-1.4,1.7-2.1,3.9-2.1,6.6c0,2.8,0.7,5,2.1,6.7C-31.7-157.5-29.7-156.7-27-156.7z"/>
		</g>
	</g>
</g>
<g>
	<g transform="translate(251.842689, 205.492676)">
		<g>
			<path class="st0" d="M-29.1-197.1h6.6v45.3h-6.6V-197.1z"/>
		</g>
	</g>
</g>
</svg>
