<svg id="Layer_1" data-name="Layer 1" xmlns="http://www.w3.org/2000/svg" viewBox="0 0 332.93 47.16"><defs><style>.cls-1{fill:#fff;}</style></defs><path class="cls-1" d="M14,16.6a16.5,16.5,0,0,0-.66,4.29c0,11,13.32,11.72,13.32,20.37,0,2.74-3.87,4.49-6.33,4.49H12.1v8.5H23.77c6.57,0,13.75-5.86,13.75-13.13,0-14-13.8-15.4-13.75-21.88a6.43,6.43,0,0,1,.57-2.64Z" transform="translate(-12.1 -15.6)"/><path class="cls-1" d="M62,16.6c-9.69,0-18.52,8.5-18.52,18.47,0,10.68,7.7,19.18,18.42,19.18H75.37v-8.5H65A10.37,10.37,0,0,1,54.3,35.07c0-4.91,4.58-10,10.67-10h10.4V16.6Z" transform="translate(-12.1 -15.6)"/><path class="cls-1" d="M82,16.6V54.25H92V16.6Zm25.61,0V32.85H94.22v8.5h13.42V62.76h9.92V16.6Z" transform="translate(-12.1 -15.6)"/><path class="cls-1" d="M125,16.6V54.25h10.3V25.1h9.26c2.56,0,4.63,3.12,4.63,5.62V54.25h10.31V25.1h8.83c2.69,0,5.06,3.12,5.06,5.81V54.25h10.3V28.41c0-7.18-6.67-11.81-13.33-11.81H158.86v6.85c-2.6-4.16-6.66-6.85-11.1-6.85Z" transform="translate(-12.1 -15.6)"/><path class="cls-1" d="M214.67,45.75V37.24H200.35V32.85a8.59,8.59,0,0,1,8.41-8.74c4.48,0,8.17,4,8.17,9V62.76h10.3V33.61a18.29,18.29,0,0,0-18.52-18c-10.3,0-18.66,8-18.66,18V45.75Z" transform="translate(-12.1 -15.6)"/><path class="cls-1" d="M234.65,16.6V54.25H260v-8.5H245V16.6Z" transform="translate(-12.1 -15.6)"/><path class="cls-1" d="M265.7,16.6v8.5h13.65V54.25h10.39V25.1H303.4V16.6Z" transform="translate(-12.1 -15.6)"/><path class="cls-1" d="M309.21,16.6v8.5h22v.1l-22,20.74v8.31H345v-8.5H324.05l-.14-.14L345,26.28V16.6Z" transform="translate(-12.1 -15.6)"/></svg>